<?xml version="1.0" encoding="UTF-8" standalone="no"?>
<!DOCTYPE svg PUBLIC "-//W3C//DTD SVG 1.1//EN" "http://www.w3.org/Graphics/SVG/1.1/DTD/svg11.dtd">
<svg width="100%" height="100%" viewBox="0 0 2953 1772" version="1.1" xmlns="http://www.w3.org/2000/svg" xmlns:xlink="http://www.w3.org/1999/xlink" xml:space="preserve" xmlns:serif="http://www.serif.com/" style="fill-rule:evenodd;clip-rule:evenodd;stroke-linecap:round;stroke-linejoin:round;stroke-miterlimit:1.5;">
    <g transform="matrix(1,0,0,1,-809.701033,-698.972687)">
        <g transform="matrix(0.95,0,0,1,59.595616,0)">
            <g transform="matrix(833.333333,0,0,833.333333,3495.421091,1877.716125)">
            </g>
            <text x="1191.912px" y="1877.716px" style="font-family:'karen-Regular', 'karen';font-size:833.333px;">M<tspan x="1880.772px 2349.939px 2623.754px 2991.254px " y="1877.716px 1877.716px 1877.716px 1877.716px ">atch</tspan></text>
        </g>
    </g>
    <g transform="matrix(1.128297,0,0,1.128297,457.218494,218.51413)">
        <g transform="matrix(0.999967,-0.001362,-0.001362,0.943868,0.54193,22.337686)">
            <path d="M1148.92,370.075L1150.809,447.968" style="fill:none;stroke:black;stroke-width:6.85px;"/>
        </g>
        <g transform="matrix(1,-0.000007,-0.000007,0.999699,32.415978,4.494678)">
            <path d="M1148.92,370.075L1150.809,447.968" style="fill:none;stroke:black;stroke-width:6.65px;"/>
        </g>
        <g transform="matrix(0.999974,-0.001058,-0.001058,0.956397,67.218171,29.47627)">
            <path d="M1148.92,370.075L1150.809,447.968" style="fill:none;stroke:black;stroke-width:6.8px;"/>
        </g>
        <g transform="matrix(1,-0.000007,-0.000007,0.999699,99.131309,12.244465)">
            <path d="M1148.92,370.075L1150.809,447.968" style="fill:none;stroke:black;stroke-width:6.65px;"/>
        </g>
        <g transform="matrix(0.999989,-0.000435,-0.000435,0.982058,133.603878,20.639402)">
            <path d="M1148.92,370.075L1150.809,447.968" style="fill:none;stroke:black;stroke-width:6.71px;"/>
        </g>
        <g transform="matrix(0.999967,-0.001362,-0.001362,0.943868,0.54193,22.337686)">
            <path d="M1148.92,370.075L1150.809,447.968" style="fill:none;stroke:black;stroke-width:6.85px;"/>
        </g>
        <g transform="matrix(1,-0.000007,-0.000007,0.999699,32.415978,4.494678)">
            <path d="M1148.92,370.075L1150.809,447.968" style="fill:none;stroke:black;stroke-width:6.65px;"/>
        </g>
        <g transform="matrix(0.999974,-0.001058,-0.001058,0.956397,67.218171,29.47627)">
            <path d="M1148.92,370.075L1150.809,447.968" style="fill:none;stroke:black;stroke-width:6.8px;"/>
        </g>
        <g transform="matrix(0.999973,-0.001094,-0.001094,0.954914,99.56369,30.066696)">
            <path d="M1148.92,370.075L1150.809,447.968" style="fill:none;stroke:black;stroke-width:6.81px;"/>
        </g>
        <g transform="matrix(0.999989,-0.000435,-0.000435,0.982058,133.603878,20.639402)">
            <path d="M1148.92,370.075L1150.809,447.968" style="fill:none;stroke:black;stroke-width:6.71px;"/>
        </g>
        <g transform="matrix(1,-0.000007,-0.000007,0.999699,165.551452,12.528287)">
            <path d="M1148.92,370.075L1150.809,447.968" style="fill:none;stroke:black;stroke-width:6.65px;"/>
        </g>
        <g transform="matrix(0.999974,-0.001058,-0.001058,0.956397,200.353644,30.509879)">
            <path d="M1148.92,370.075L1150.809,447.968" style="fill:none;stroke:black;stroke-width:6.8px;"/>
        </g>
        <g transform="matrix(0.999979,-0.000857,-0.000857,0.964684,232.604835,21.212206)">
            <path d="M1148.92,370.075L1150.809,447.968" style="fill:none;stroke:black;stroke-width:6.77px;"/>
        </g>
        <g transform="matrix(0.999989,-0.000435,-0.000435,0.982058,266.739352,9.673011)">
            <path d="M1148.92,370.075L1150.809,447.968" style="fill:none;stroke:black;stroke-width:6.71px;"/>
        </g>
        <g transform="matrix(0.999967,-0.001365,-0.001365,0.943752,267.868508,24.91685)">
            <path d="M1148.92,370.075L1150.809,447.968" style="fill:none;stroke:black;stroke-width:6.85px;"/>
        </g>
        <g transform="matrix(0.999971,-0.001208,-0.001208,0.950192,300.113624,15.368752)">
            <path d="M1148.92,370.075L1150.809,447.968" style="fill:none;stroke:black;stroke-width:6.82px;"/>
        </g>
        <g transform="matrix(0.509825,0,0,0.509825,747.062546,159.343262)">
            <path d="M718.34,390.183C1071.285,500.911 1444.991,387.877 1444.991,387.877" style="fill:none;stroke:black;stroke-width:13.04px;"/>
        </g>
        <g transform="matrix(0.509825,0,0,0.509825,747.062546,185.307725)">
            <path d="M718.34,390.183C1071.285,500.911 1444.991,387.877 1444.991,387.877" style="fill:none;stroke:black;stroke-width:13.04px;"/>
        </g>
        <g transform="matrix(0.509825,0,0,0.509825,747.062546,211.272187)">
            <path d="M718.34,390.183C1071.285,500.911 1444.991,387.877 1444.991,387.877" style="fill:none;stroke:black;stroke-width:13.04px;"/>
        </g>
        <g transform="matrix(0.509825,0,0,0.509825,747.062546,237.23665)">
            <path d="M718.34,390.183C1071.285,500.911 1444.991,387.877 1444.991,387.877" style="fill:none;stroke:black;stroke-width:13.04px;"/>
        </g>
    </g>
    <g transform="matrix(1.128297,0,0,1.128297,457.218494,218.51413)">
        <g transform="matrix(0.999967,-0.001362,-0.001362,0.943868,0.54193,22.337686)">
            <path d="M1148.92,370.075L1150.809,447.968" style="fill:none;stroke:black;stroke-width:6.85px;"/>
        </g>
        <g transform="matrix(1,-0.000007,-0.000007,0.999699,32.415978,4.494678)">
            <path d="M1148.92,370.075L1150.809,447.968" style="fill:none;stroke:black;stroke-width:6.65px;"/>
        </g>
        <g transform="matrix(0.999974,-0.001058,-0.001058,0.956397,67.218171,29.47627)">
            <path d="M1148.92,370.075L1150.809,447.968" style="fill:none;stroke:black;stroke-width:6.8px;"/>
        </g>
        <g transform="matrix(1,-0.000007,-0.000007,0.999699,99.131309,12.244465)">
            <path d="M1148.92,370.075L1150.809,447.968" style="fill:none;stroke:black;stroke-width:6.65px;"/>
        </g>
        <g transform="matrix(0.999989,-0.000435,-0.000435,0.982058,133.603878,20.639402)">
            <path d="M1148.92,370.075L1150.809,447.968" style="fill:none;stroke:black;stroke-width:6.71px;"/>
        </g>
        <g transform="matrix(0.999967,-0.001362,-0.001362,0.943868,0.54193,22.337686)">
            <path d="M1148.92,370.075L1150.809,447.968" style="fill:none;stroke:black;stroke-width:6.85px;"/>
        </g>
        <g transform="matrix(1,-0.000007,-0.000007,0.999699,32.415978,4.494678)">
            <path d="M1148.92,370.075L1150.809,447.968" style="fill:none;stroke:black;stroke-width:6.65px;"/>
        </g>
        <g transform="matrix(0.999974,-0.001058,-0.001058,0.956397,67.218171,29.47627)">
            <path d="M1148.92,370.075L1150.809,447.968" style="fill:none;stroke:black;stroke-width:6.8px;"/>
        </g>
        <g transform="matrix(0.999973,-0.001094,-0.001094,0.954914,99.56369,30.066696)">
            <path d="M1148.92,370.075L1150.809,447.968" style="fill:none;stroke:black;stroke-width:6.81px;"/>
        </g>
        <g transform="matrix(0.999989,-0.000435,-0.000435,0.982058,133.603878,20.639402)">
            <path d="M1148.92,370.075L1150.809,447.968" style="fill:none;stroke:black;stroke-width:6.71px;"/>
        </g>
        <g transform="matrix(1,-0.000007,-0.000007,0.999699,165.551452,12.528287)">
            <path d="M1148.92,370.075L1150.809,447.968" style="fill:none;stroke:black;stroke-width:6.65px;"/>
        </g>
        <g transform="matrix(0.999974,-0.001058,-0.001058,0.956397,200.353644,30.509879)">
            <path d="M1148.92,370.075L1150.809,447.968" style="fill:none;stroke:black;stroke-width:6.8px;"/>
        </g>
        <g transform="matrix(0.999979,-0.000857,-0.000857,0.964684,232.604835,21.212206)">
            <path d="M1148.92,370.075L1150.809,447.968" style="fill:none;stroke:black;stroke-width:6.77px;"/>
        </g>
        <g transform="matrix(0.999989,-0.000435,-0.000435,0.982058,266.739352,9.673011)">
            <path d="M1148.92,370.075L1150.809,447.968" style="fill:none;stroke:black;stroke-width:6.71px;"/>
        </g>
        <g transform="matrix(0.999967,-0.001365,-0.001365,0.943752,267.868508,24.91685)">
            <path d="M1148.92,370.075L1150.809,447.968" style="fill:none;stroke:black;stroke-width:6.85px;"/>
        </g>
        <g transform="matrix(0.999971,-0.001208,-0.001208,0.950192,300.113624,15.368752)">
            <path d="M1148.92,370.075L1150.809,447.968" style="fill:none;stroke:black;stroke-width:6.82px;"/>
        </g>
        <g transform="matrix(0.509825,0,0,0.509825,747.062546,159.343262)">
            <path d="M718.34,390.183C1071.285,500.911 1444.991,387.877 1444.991,387.877" style="fill:none;stroke:black;stroke-width:13.04px;"/>
        </g>
        <g transform="matrix(0.509825,0,0,0.509825,747.062546,185.307725)">
            <path d="M718.34,390.183C1071.285,500.911 1444.991,387.877 1444.991,387.877" style="fill:none;stroke:black;stroke-width:13.04px;"/>
        </g>
        <g transform="matrix(0.509825,0,0,0.509825,747.062546,211.272187)">
            <path d="M718.34,390.183C1071.285,500.911 1444.991,387.877 1444.991,387.877" style="fill:none;stroke:black;stroke-width:13.04px;"/>
        </g>
        <g transform="matrix(0.509825,0,0,0.509825,747.062546,237.23665)">
            <path d="M718.34,390.183C1071.285,500.911 1444.991,387.877 1444.991,387.877" style="fill:none;stroke:black;stroke-width:13.04px;"/>
        </g>
    </g>
    <g transform="matrix(1.128297,0,0,1.128297,459.602153,308.234582)">
        <g transform="matrix(0.999967,-0.001362,-0.001362,0.943868,0.54193,22.337686)">
            <path d="M1148.92,370.075L1150.809,447.968" style="fill:none;stroke:black;stroke-width:6.85px;"/>
        </g>
        <g transform="matrix(1,-0.000007,-0.000007,0.999699,32.415978,4.494678)">
            <path d="M1148.92,370.075L1150.809,447.968" style="fill:none;stroke:black;stroke-width:6.65px;"/>
        </g>
        <g transform="matrix(0.999974,-0.001058,-0.001058,0.956397,67.218171,29.47627)">
            <path d="M1148.92,370.075L1150.809,447.968" style="fill:none;stroke:black;stroke-width:6.8px;"/>
        </g>
        <g transform="matrix(1,-0.000007,-0.000007,0.999699,99.131309,12.244465)">
            <path d="M1148.92,370.075L1150.809,447.968" style="fill:none;stroke:black;stroke-width:6.65px;"/>
        </g>
        <g transform="matrix(0.999989,-0.000435,-0.000435,0.982058,133.603878,20.639402)">
            <path d="M1148.92,370.075L1150.809,447.968" style="fill:none;stroke:black;stroke-width:6.71px;"/>
        </g>
        <g transform="matrix(0.999967,-0.001362,-0.001362,0.943868,0.54193,22.337686)">
            <path d="M1148.92,370.075L1150.809,447.968" style="fill:none;stroke:black;stroke-width:6.85px;"/>
        </g>
        <g transform="matrix(1,-0.000007,-0.000007,0.999699,32.415978,4.494678)">
            <path d="M1148.92,370.075L1150.809,447.968" style="fill:none;stroke:black;stroke-width:6.65px;"/>
        </g>
        <g transform="matrix(0.999974,-0.001058,-0.001058,0.956397,67.218171,29.47627)">
            <path d="M1148.92,370.075L1150.809,447.968" style="fill:none;stroke:black;stroke-width:6.8px;"/>
        </g>
        <g transform="matrix(0.999973,-0.001094,-0.001094,0.954914,99.56369,30.066696)">
            <path d="M1148.92,370.075L1150.809,447.968" style="fill:none;stroke:black;stroke-width:6.81px;"/>
        </g>
        <g transform="matrix(0.999989,-0.000435,-0.000435,0.982058,133.603878,20.639402)">
            <path d="M1148.92,370.075L1150.809,447.968" style="fill:none;stroke:black;stroke-width:6.71px;"/>
        </g>
        <g transform="matrix(1,-0.000007,-0.000007,0.999699,165.551452,12.528287)">
            <path d="M1148.92,370.075L1150.809,447.968" style="fill:none;stroke:black;stroke-width:6.65px;"/>
        </g>
        <g transform="matrix(0.999974,-0.001058,-0.001058,0.956397,200.353644,30.509879)">
            <path d="M1148.92,370.075L1150.809,447.968" style="fill:none;stroke:black;stroke-width:6.8px;"/>
        </g>
        <g transform="matrix(0.999979,-0.000857,-0.000857,0.964684,232.604835,21.212206)">
            <path d="M1148.92,370.075L1150.809,447.968" style="fill:none;stroke:black;stroke-width:6.77px;"/>
        </g>
        <g transform="matrix(0.999989,-0.000435,-0.000435,0.982058,266.739352,9.673011)">
            <path d="M1148.92,370.075L1150.809,447.968" style="fill:none;stroke:black;stroke-width:6.71px;"/>
        </g>
        <g transform="matrix(0.999967,-0.001365,-0.001365,0.943752,267.868508,24.91685)">
            <path d="M1148.92,370.075L1150.809,447.968" style="fill:none;stroke:black;stroke-width:6.85px;"/>
        </g>
        <g transform="matrix(0.999971,-0.001208,-0.001208,0.950192,300.113624,15.368752)">
            <path d="M1148.92,370.075L1150.809,447.968" style="fill:none;stroke:black;stroke-width:6.82px;"/>
        </g>
        <g transform="matrix(0.509825,0,0,0.509825,747.062546,159.343262)">
            <path d="M718.34,390.183C1071.285,500.911 1444.991,387.877 1444.991,387.877" style="fill:none;stroke:black;stroke-width:13.04px;"/>
        </g>
        <g transform="matrix(0.509825,0,0,0.509825,747.062546,185.307725)">
            <path d="M718.34,390.183C1071.285,500.911 1444.991,387.877 1444.991,387.877" style="fill:none;stroke:black;stroke-width:13.04px;"/>
        </g>
        <g transform="matrix(0.509825,0,0,0.509825,747.062546,211.272187)">
            <path d="M718.34,390.183C1071.285,500.911 1444.991,387.877 1444.991,387.877" style="fill:none;stroke:black;stroke-width:13.04px;"/>
        </g>
        <g transform="matrix(0.509825,0,0,0.509825,747.062546,237.23665)">
            <path d="M718.34,390.183C1071.285,500.911 1444.991,387.877 1444.991,387.877" style="fill:none;stroke:black;stroke-width:13.04px;"/>
        </g>
    </g>
    <g transform="matrix(1.128297,0,0,1.128297,-721.145847,204.783091)">
        <g transform="matrix(0.999967,-0.001362,-0.001362,0.943868,0.54193,22.337686)">
            <path d="M1148.92,370.075L1150.809,447.968" style="fill:none;stroke:black;stroke-width:6.85px;"/>
        </g>
        <g transform="matrix(1,-0.000007,-0.000007,0.999699,32.415978,4.494678)">
            <path d="M1148.92,370.075L1150.809,447.968" style="fill:none;stroke:black;stroke-width:6.65px;"/>
        </g>
        <g transform="matrix(0.999974,-0.001058,-0.001058,0.956397,67.218171,29.47627)">
            <path d="M1148.92,370.075L1150.809,447.968" style="fill:none;stroke:black;stroke-width:6.8px;"/>
        </g>
        <g transform="matrix(1,-0.000007,-0.000007,0.999699,99.131309,12.244465)">
            <path d="M1148.92,370.075L1150.809,447.968" style="fill:none;stroke:black;stroke-width:6.65px;"/>
        </g>
        <g transform="matrix(0.999989,-0.000435,-0.000435,0.982058,133.603878,20.639402)">
            <path d="M1148.92,370.075L1150.809,447.968" style="fill:none;stroke:black;stroke-width:6.71px;"/>
        </g>
        <g transform="matrix(0.999967,-0.001362,-0.001362,0.943868,0.54193,22.337686)">
            <path d="M1148.92,370.075L1150.809,447.968" style="fill:none;stroke:black;stroke-width:6.85px;"/>
        </g>
        <g transform="matrix(1,-0.000007,-0.000007,0.999699,32.415978,4.494678)">
            <path d="M1148.92,370.075L1150.809,447.968" style="fill:none;stroke:black;stroke-width:6.65px;"/>
        </g>
        <g transform="matrix(0.999974,-0.001058,-0.001058,0.956397,67.218171,29.47627)">
            <path d="M1148.92,370.075L1150.809,447.968" style="fill:none;stroke:black;stroke-width:6.8px;"/>
        </g>
        <g transform="matrix(0.999973,-0.001094,-0.001094,0.954914,99.56369,30.066696)">
            <path d="M1148.92,370.075L1150.809,447.968" style="fill:none;stroke:black;stroke-width:6.81px;"/>
        </g>
        <g transform="matrix(0.999989,-0.000435,-0.000435,0.982058,133.603878,20.639402)">
            <path d="M1148.92,370.075L1150.809,447.968" style="fill:none;stroke:black;stroke-width:6.71px;"/>
        </g>
        <g transform="matrix(1,-0.000007,-0.000007,0.999699,165.551452,12.528287)">
            <path d="M1148.92,370.075L1150.809,447.968" style="fill:none;stroke:black;stroke-width:6.65px;"/>
        </g>
        <g transform="matrix(0.999974,-0.001058,-0.001058,0.956397,200.353644,30.509879)">
            <path d="M1148.92,370.075L1150.809,447.968" style="fill:none;stroke:black;stroke-width:6.8px;"/>
        </g>
        <g transform="matrix(0.999979,-0.000857,-0.000857,0.964684,232.604835,21.212206)">
            <path d="M1148.92,370.075L1150.809,447.968" style="fill:none;stroke:black;stroke-width:6.77px;"/>
        </g>
        <g transform="matrix(0.999989,-0.000435,-0.000435,0.982058,266.739352,9.673011)">
            <path d="M1148.92,370.075L1150.809,447.968" style="fill:none;stroke:black;stroke-width:6.71px;"/>
        </g>
        <g transform="matrix(0.999967,-0.001365,-0.001365,0.943752,267.868508,24.91685)">
            <path d="M1148.92,370.075L1150.809,447.968" style="fill:none;stroke:black;stroke-width:6.85px;"/>
        </g>
        <g transform="matrix(0.999971,-0.001208,-0.001208,0.950192,300.113624,15.368752)">
            <path d="M1148.92,370.075L1150.809,447.968" style="fill:none;stroke:black;stroke-width:6.82px;"/>
        </g>
        <g transform="matrix(0.509825,0,0,0.509825,747.062546,159.343262)">
            <path d="M718.34,390.183C1071.285,500.911 1444.991,387.877 1444.991,387.877" style="fill:none;stroke:black;stroke-width:13.04px;"/>
        </g>
        <g transform="matrix(0.509825,0,0,0.509825,747.062546,185.307725)">
            <path d="M718.34,390.183C1071.285,500.911 1444.991,387.877 1444.991,387.877" style="fill:none;stroke:black;stroke-width:13.04px;"/>
        </g>
        <g transform="matrix(0.509825,0,0,0.509825,747.062546,211.272187)">
            <path d="M718.34,390.183C1071.285,500.911 1444.991,387.877 1444.991,387.877" style="fill:none;stroke:black;stroke-width:13.04px;"/>
        </g>
        <g transform="matrix(0.509825,0,0,0.509825,747.062546,237.23665)">
            <path d="M718.34,390.183C1071.285,500.911 1444.991,387.877 1444.991,387.877" style="fill:none;stroke:black;stroke-width:13.04px;"/>
        </g>
    </g>
    <g transform="matrix(1.128297,0,0,1.128297,-718.762188,294.503543)">
        <g transform="matrix(0.999967,-0.001362,-0.001362,0.943868,0.54193,22.337686)">
            <path d="M1148.92,370.075L1150.809,447.968" style="fill:none;stroke:black;stroke-width:6.85px;"/>
        </g>
        <g transform="matrix(1,-0.000007,-0.000007,0.999699,32.415978,4.494678)">
            <path d="M1148.92,370.075L1150.809,447.968" style="fill:none;stroke:black;stroke-width:6.65px;"/>
        </g>
        <g transform="matrix(0.999974,-0.001058,-0.001058,0.956397,67.218171,29.47627)">
            <path d="M1148.92,370.075L1150.809,447.968" style="fill:none;stroke:black;stroke-width:6.8px;"/>
        </g>
        <g transform="matrix(1,-0.000007,-0.000007,0.999699,99.131309,12.244465)">
            <path d="M1148.92,370.075L1150.809,447.968" style="fill:none;stroke:black;stroke-width:6.65px;"/>
        </g>
        <g transform="matrix(0.999989,-0.000435,-0.000435,0.982058,133.603878,20.639402)">
            <path d="M1148.92,370.075L1150.809,447.968" style="fill:none;stroke:black;stroke-width:6.71px;"/>
        </g>
        <g transform="matrix(0.999967,-0.001362,-0.001362,0.943868,0.54193,22.337686)">
            <path d="M1148.92,370.075L1150.809,447.968" style="fill:none;stroke:black;stroke-width:6.85px;"/>
        </g>
        <g transform="matrix(1,-0.000007,-0.000007,0.999699,32.415978,4.494678)">
            <path d="M1148.92,370.075L1150.809,447.968" style="fill:none;stroke:black;stroke-width:6.65px;"/>
        </g>
        <g transform="matrix(0.999974,-0.001058,-0.001058,0.956397,67.218171,29.47627)">
            <path d="M1148.92,370.075L1150.809,447.968" style="fill:none;stroke:black;stroke-width:6.8px;"/>
        </g>
        <g transform="matrix(0.999973,-0.001094,-0.001094,0.954914,99.56369,30.066696)">
            <path d="M1148.92,370.075L1150.809,447.968" style="fill:none;stroke:black;stroke-width:6.81px;"/>
        </g>
        <g transform="matrix(0.999989,-0.000435,-0.000435,0.982058,133.603878,20.639402)">
            <path d="M1148.92,370.075L1150.809,447.968" style="fill:none;stroke:black;stroke-width:6.71px;"/>
        </g>
        <g transform="matrix(1,-0.000007,-0.000007,0.999699,165.551452,12.528287)">
            <path d="M1148.92,370.075L1150.809,447.968" style="fill:none;stroke:black;stroke-width:6.65px;"/>
        </g>
        <g transform="matrix(0.999974,-0.001058,-0.001058,0.956397,200.353644,30.509879)">
            <path d="M1148.92,370.075L1150.809,447.968" style="fill:none;stroke:black;stroke-width:6.8px;"/>
        </g>
        <g transform="matrix(0.999979,-0.000857,-0.000857,0.964684,232.604835,21.212206)">
            <path d="M1148.92,370.075L1150.809,447.968" style="fill:none;stroke:black;stroke-width:6.77px;"/>
        </g>
        <g transform="matrix(0.999989,-0.000435,-0.000435,0.982058,266.739352,9.673011)">
            <path d="M1148.92,370.075L1150.809,447.968" style="fill:none;stroke:black;stroke-width:6.71px;"/>
        </g>
        <g transform="matrix(0.999967,-0.001365,-0.001365,0.943752,267.868508,24.91685)">
            <path d="M1148.92,370.075L1150.809,447.968" style="fill:none;stroke:black;stroke-width:6.85px;"/>
        </g>
        <g transform="matrix(0.999971,-0.001208,-0.001208,0.950192,300.113624,15.368752)">
            <path d="M1148.92,370.075L1150.809,447.968" style="fill:none;stroke:black;stroke-width:6.82px;"/>
        </g>
        <g transform="matrix(0.509825,0,0,0.509825,747.062546,159.343262)">
            <path d="M718.34,390.183C1071.285,500.911 1444.991,387.877 1444.991,387.877" style="fill:none;stroke:black;stroke-width:13.04px;"/>
        </g>
        <g transform="matrix(0.509825,0,0,0.509825,747.062546,185.307725)">
            <path d="M718.34,390.183C1071.285,500.911 1444.991,387.877 1444.991,387.877" style="fill:none;stroke:black;stroke-width:13.04px;"/>
        </g>
        <g transform="matrix(0.509825,0,0,0.509825,747.062546,211.272187)">
            <path d="M718.34,390.183C1071.285,500.911 1444.991,387.877 1444.991,387.877" style="fill:none;stroke:black;stroke-width:13.04px;"/>
        </g>
        <g transform="matrix(0.509825,0,0,0.509825,747.062546,237.23665)">
            <path d="M718.34,390.183C1071.285,500.911 1444.991,387.877 1444.991,387.877" style="fill:none;stroke:black;stroke-width:13.04px;"/>
        </g>
    </g>
    <g transform="matrix(1,0,0,1,-17.805065,-5.905485)">
        <ellipse cx="1290.201" cy="961.488" rx="84.958" ry="90.797"/>
    </g>
    <g transform="matrix(0.139438,0.12088,-0.12088,0.139438,1123.409376,676.121958)">
        <g transform="matrix(-1,0.000436,-0.000552,-1.266667,3721.574629,2612.9788)">
            <path d="M2388.396,1229.546L2100.716,1229.546C2086.138,1208.505 2078.463,1184.637 2078.463,1160.341C2078.463,1083.95 2152.887,1021.93 2244.556,1021.93C2336.225,1021.93 2410.648,1083.95 2410.648,1160.341C2410.648,1184.637 2402.974,1208.505 2388.396,1229.546Z" style="fill:white;"/>
        </g>
        <g transform="matrix(-0.854868,-0.000271,0.015395,-0.643236,2874.129724,1507.731141)">
            <path d="M1642.47,1031.377L1557.922,1031.377L1586.78,738.408L1632.135,738.408L1642.47,1031.377Z" style="fill:white;"/>
        </g>
        <g transform="matrix(0.854868,-0.000271,-0.004365,-0.643239,66.287295,1507.734748)">
            <path d="M1642.47,1031.377L1557.922,1031.377L1586.78,738.408L1632.135,738.408L1642.47,1031.377Z" style="fill:white;"/>
        </g>
        <g transform="matrix(-1.093513,-0.000347,0.13503,-0.643198,3235.322986,1507.817327)">
            <path d="M1642.47,1031.377L1557.922,1031.377L1586.78,738.408L1632.135,738.408L1642.47,1031.377Z" style="fill:white;"/>
        </g>
        <g transform="matrix(1.093513,-0.000347,-0.13503,-0.643198,-282.567081,1507.807681)">
            <path d="M1642.47,1031.377L1557.922,1031.377L1586.78,738.408L1632.135,738.408L1642.47,1031.377Z" style="fill:white;"/>
        </g>
        <g transform="matrix(-1.435266,-0.000585,0.052796,-1.388375,3795.314164,1845.680634)">
            <path d="M1642.47,1031.377L1557.922,1031.377L1586.78,738.408L1632.135,738.408L1642.47,1031.377Z" style="fill:white;"/>
        </g>
        <g transform="matrix(1.435266,-0.000585,-0.052796,-1.388375,-844.175779,1845.680634)">
            <path d="M1642.47,1031.377L1557.922,1031.377L1586.78,738.408L1632.135,738.408L1642.47,1031.377Z" style="fill:white;"/>
        </g>
        <g transform="matrix(-1.835935,-0.000748,0.24582,-1.388296,4409.815487,1845.869955)">
            <path d="M1642.47,1031.377L1557.922,1031.377L1586.78,738.408L1632.135,738.408L1642.47,1031.377Z" style="fill:white;"/>
        </g>
        <g transform="matrix(1.835935,-0.000748,-0.245988,-1.388296,-1456.88595,1845.849065)">
            <path d="M1642.47,1031.377L1557.922,1031.377L1586.78,738.408L1632.135,738.408L1642.47,1031.377Z" style="fill:white;"/>
        </g>
        <g transform="matrix(1.025451,0,0,1.025451,-37.574808,-13.288747)">
            <path d="M1309.09,415.498L1157.76,415.498L1195.592,358.399L1301.834,358.399L1309.09,415.498Z" style="fill:white;"/>
        </g>
        <g transform="matrix(1.034883,0,0,1.172947,-49.353196,-66.151372)">
            <path d="M1248.742,291.282L1301.377,358.399L1196.107,358.399L1248.742,291.282Z" style="fill:white;"/>
        </g>
        <g transform="matrix(-1.025451,0,0,1.025451,2990.330714,-13.288747)">
            <path d="M1309.09,415.498L1157.76,415.498L1195.592,358.399L1301.834,358.399L1309.09,415.498Z" style="fill:white;"/>
        </g>
        <g transform="matrix(0.858585,-0.000403,-0.000481,-1.025443,497.086952,780.829853)">
            <path d="M1309.09,415.498L1157.76,415.498L1159.406,358.399L1300.713,358.399L1309.09,415.498Z" style="fill:white;"/>
        </g>
        <g transform="matrix(-0.858585,-0.000403,0.000481,-1.025443,2453.956792,780.767728)">
            <path d="M1309.09,415.498L1157.76,415.498L1159.406,358.399L1300.713,358.399L1309.09,415.498Z" style="fill:white;"/>
        </g>
        <g transform="matrix(-1.034883,0,0,1.172947,3002.109102,-66.151372)">
            <path d="M1248.742,291.282L1301.377,358.399L1196.107,358.399L1248.742,291.282Z" style="fill:white;"/>
        </g>
        <g transform="matrix(-1.234253,0,0,1.172947,3097.151717,-66.151372)">
            <path d="M1237.431,291.282L1301.377,358.399L1196.107,358.399L1237.431,291.282Z" style="fill:white;"/>
        </g>
        <g transform="matrix(1.234253,0,0,1.172947,-146.107973,-66.151372)">
            <path d="M1237.431,291.282L1301.377,358.399L1196.107,358.399L1237.431,291.282Z" style="fill:white;"/>
        </g>
    </g>
</svg>
