<?xml version="1.0" encoding="UTF-8"?>
<svg version="1.1" xmlns="http://www.w3.org/2000/svg" width="512" height="512">
<path d="M0 0 C1.17290588 0.11053207 2.34581177 0.22106415 3.55426025 0.33494568 C4.69167664 0.49181351 5.82909302 0.64868134 7.00097656 0.81030273 C8.30552795 0.98726181 9.61007935 1.16422089 10.9541626 1.34654236 C12.34967452 1.54205168 13.74516141 1.73773972 15.140625 1.93359375 C16.59545362 2.13346428 18.05034998 2.33284225 19.50531006 2.53175354 C22.5382366 2.94761505 25.57059148 3.36734428 28.60253906 3.7902832 C32.48086837 4.33126503 36.36007071 4.86563051 40.23965836 5.39750576 C43.9569468 5.90736677 47.67381128 6.42028529 51.390625 6.93359375 C52.09447578 7.030585 52.79832657 7.12757626 53.52350616 7.22750664 C55.52143581 7.50343655 57.51902636 7.78181846 59.51660156 8.06030273 C60.65083557 8.21796616 61.78506958 8.37562958 62.95367432 8.53807068 C65.6578197 8.94811352 68.32421048 9.43634249 71 10 C71.11950287 23.69686748 71.00667761 37.37306406 70.5625 51.0625 C70.52326416 52.32723145 70.48402832 53.59196289 70.44360352 54.89501953 C70.32582565 58.26559151 70.17302128 61.63187031 70 65 C69.95806519 66.24680542 69.95806519 66.24680542 69.9152832 67.51879883 C69.69210844 70.86949328 69.39814008 72.60646269 66.97265625 75.00390625 C66.01230469 75.51824219 65.05195313 76.03257812 64.0625 76.5625 C63.22561646 77.03030884 63.22561646 77.03030884 62.37182617 77.50756836 C61.04600346 78.24859538 59.7137454 78.97816861 58.37695312 79.69921875 C54.57949907 81.77736534 50.85055747 83.97233356 47.10864258 86.1484375 C43.15206132 88.44601524 39.18505728 90.72515833 35.21733093 93.00341797 C29.09945112 96.51658085 22.98637383 100.03803379 16.875 103.5625 C15.26008667 104.49364624 15.26008667 104.49364624 13.61254883 105.44360352 C5.40569979 110.17953513 -2.78074075 114.94976679 -10.96142578 119.73071289 C-19.38569339 124.65051282 -27.83553896 129.52522138 -36.2890625 134.39453125 C-43.53951541 138.57349158 -50.77483863 142.77747989 -58 147 C-66.27777076 151.83676429 -74.56940966 156.64865756 -82.875 161.4375 C-83.9472583 162.0557666 -85.0195166 162.6740332 -86.12426758 163.31103516 C-91.71262578 166.53198366 -97.30296154 169.74947407 -102.89453125 172.96484375 C-104.02439453 173.61533691 -105.15425781 174.26583008 -106.31835938 174.93603516 C-108.53603255 176.21232214 -110.75475624 177.48678577 -112.97460938 178.75927734 C-117.6377704 181.44066676 -122.27537919 184.13983512 -126.82421875 187.01171875 C-127.87186401 187.66841553 -127.87186401 187.66841553 -128.94067383 188.33837891 C-130.18280452 189.12445026 -131.41663201 189.92388779 -132.6394043 190.73974609 C-134.2421875 191.75390625 -134.2421875 191.75390625 -137 193 C-139.86317461 191.91494024 -141.8683242 190.39105941 -144.0402832 188.26611328 C-144.60378983 187.71859406 -145.16729645 187.17107483 -145.74787903 186.60696411 C-146.34283676 186.01736908 -146.93779449 185.42777405 -147.55078125 184.8203125 C-148.16898239 184.21113983 -148.78718353 183.60196716 -149.42411804 182.97433472 C-150.72531842 181.68761328 -152.02374974 180.39808637 -153.31958008 179.10595703 C-155.31076886 177.12672074 -157.31984808 175.16690114 -159.33007812 173.20703125 C-160.59229029 171.95427704 -161.85339726 170.7004081 -163.11328125 169.4453125 C-163.71836014 168.85976593 -164.32343903 168.27421936 -164.94685364 167.67092896 C-166.60668945 165.99267578 -166.60668945 165.99267578 -169 163 C-168.55597882 158.301336 -165.08346208 155.648579 -161.90405273 152.48272705 C-161.26026358 151.83002453 -160.61647442 151.177322 -159.9531765 150.50484061 C-157.78714976 148.31273297 -155.61045928 146.13153609 -153.43359375 143.95019531 C-151.88098261 142.38370112 -150.32896939 140.81661413 -148.7775116 139.24897766 C-144.55545339 134.9875291 -140.32339549 130.73615147 -136.08826447 126.48769855 C-133.44369038 123.83433595 -130.80088863 121.17922055 -128.15863037 118.52355194 C-120.84135138 111.16994638 -113.52148938 103.81893761 -106.19110107 96.47839737 C-105.72205007 96.00868766 -105.25299906 95.53897796 -104.76973438 95.05503462 C-104.06448014 94.34879813 -104.06448014 94.34879813 -103.34497833 93.62829423 C-102.39225305 92.67423855 -101.43953241 91.72017823 -100.48681641 90.76611328 C-100.01423495 90.29286754 -99.5416535 89.8196218 -99.0547514 89.33203527 C-91.39770649 81.66314618 -83.76113543 73.97421114 -76.13317978 66.27639809 C-68.29981921 58.37188112 -60.44925745 50.48472137 -52.58236599 42.61355853 C-48.16633473 38.19437988 -43.75792697 33.76818135 -39.36715698 29.32389069 C-35.23686179 25.14423542 -31.08571109 20.98649477 -26.91750526 16.84465599 C-25.39112938 15.32059565 -23.8724288 13.78880371 -22.36208153 12.2488575 C-20.29883842 10.14757218 -18.20974133 8.07591435 -16.11181641 6.00933838 C-15.22417178 5.08543993 -15.22417178 5.08543993 -14.31859493 4.14287686 C-9.72833483 -0.28850153 -6.23843457 -0.73676483 0 0 Z " fill="#000000" transform="translate(361,158)"/>
<path d="M0 0 C14.12844926 51.19377797 14.12844926 51.19377797 3.95527506 69.20866609 C-4.03484091 81.17060696 -14.87588179 90.86034671 -25.5167942 100.41158199 C-29.92559585 104.4325759 -34.17236528 108.61627444 -38.42560619 112.80006662 C-46.83203123 121.05915814 -55.37720801 129.15632919 -64.02832031 137.15820312 C-72.40962632 144.91116504 -80.71313441 152.73554038 -88.92871094 160.6640625 C-89.43860197 161.15608834 -89.94849301 161.64811418 -90.47383529 162.15504989 C-93.03245637 164.62490105 -95.58967717 167.09619632 -98.14620686 169.56821203 C-119.21800804 189.93982726 -140.52763876 210.05102918 -162 230 C-164.75059447 228.66937133 -166.84517173 227.41611046 -169.0402832 225.28198242 C-169.60378983 224.73769089 -170.16729645 224.19339935 -170.74787903 223.63261414 C-171.34283676 223.04615616 -171.93779449 222.45969818 -172.55078125 221.85546875 C-173.16898239 221.24866776 -173.78718353 220.64186676 -174.42411804 220.01667786 C-175.72540261 218.73424696 -177.02383206 217.44891336 -178.31958008 216.16088867 C-180.30916065 214.19080663 -182.31903122 212.24305444 -184.33007812 210.29492188 C-185.5924577 209.04559501 -186.85357024 207.7949863 -188.11328125 206.54296875 C-188.71836014 205.96258347 -189.32343903 205.38219818 -189.94685364 204.78422546 C-193.98352002 200.7033253 -193.98352002 200.7033253 -194.05981445 197.44726562 C-192.83239714 194.61298063 -191.48132716 191.97412251 -189.9296875 189.30078125 C-188.96748291 187.63063965 -188.96748291 187.63063965 -187.98583984 185.92675781 C-187.28235636 184.72192941 -186.57873958 183.51717884 -185.875 182.3125 C-185.14859988 181.05734292 -184.42286091 179.801803 -183.69775391 178.54589844 C-182.20318775 175.95961914 -180.70477169 173.37563143 -179.203125 170.79345703 C-177.15662755 167.27296756 -175.12325274 163.74515962 -173.09375 160.21484375 C-166.52776593 148.79592732 -159.9118919 137.40674555 -153.2668457 126.03369141 C-146.4638519 114.38314679 -139.73348716 102.6908046 -133 91 C-125.12927193 77.33469675 -117.24178678 63.6801538 -109.28466797 50.06494141 C-104.23656024 41.4210387 -99.23083206 32.75307087 -94.23632812 24.078125 C-93.10382684 22.11161115 -91.95583485 20.15389229 -90.78865051 18.20776367 C-88.95000602 15.07671049 -88.95000602 15.07671049 -87.75749207 11.85180664 C-86.19590848 8.27236846 -84.74773983 5.79449321 -82 3 C-76.0886966 1.11651375 -70.3011291 1.18089093 -64.140625 1.171875 C-62.38647821 1.12688583 -60.63245783 1.07669484 -58.87860107 1.02154541 C-54.27661218 0.89078789 -49.67633245 0.83061199 -45.07281494 0.78533936 C-40.38214526 0.72661597 -35.69333331 0.60060556 -31.00390625 0.48046875 C-20.67199381 0.22750534 -10.33550011 0 0 0 Z " fill="#000000" transform="translate(344,79)"/>
<path d="M0 0 C0.67262878 0.18830887 1.34525757 0.37661774 2.03826904 0.57063293 C4.41750412 1.24798041 6.78224099 1.9659564 9.1484375 2.6875 C11.08928429 3.26545718 13.03020647 3.84316122 14.97119141 4.4206543 C21.45892038 6.3670238 27.9290465 8.3686819 34.3984375 10.375 C37.7445896 11.40890175 41.09110744 12.44160466 44.43792725 13.4733429 C46.50402444 14.1106649 48.56967846 14.74942587 50.63482666 15.38981628 C51.56389832 15.67714127 52.49296997 15.96446625 53.45019531 16.26049805 C54.26353333 16.512686 55.07687134 16.76487396 55.91485596 17.02470398 C57.98191039 17.63808452 60.05248465 18.18289169 62.1484375 18.6875 C60.54076309 24.40782987 57.77514339 29.28309382 54.8984375 34.4375 C53.80913073 36.41103622 52.72062217 38.38501318 51.6328125 40.359375 C50.77719727 41.90915039 50.77719727 41.90915039 49.90429688 43.49023438 C47.54793998 47.78095321 45.22613106 52.08956543 42.91772461 56.40625 C41.73026722 58.60846158 40.52504455 60.80117884 39.30297852 62.984375 C36.4305694 68.15586577 33.8964001 73.1110033 32.03515625 78.734375 C29.34576272 86.21977315 26.10224817 92.60329566 18.82798767 96.43783569 C15.32615976 97.84632736 11.74328077 98.97872702 8.13246727 100.07246208 C5.51256354 100.86609082 2.90881982 101.70116866 0.30500793 102.54603577 C-3.74808118 103.85832657 -7.80615915 105.15366189 -11.86697388 106.4418335 C-19.63237281 108.92135942 -27.35571733 111.52103589 -35.07788086 114.13134766 C-35.79154883 114.37247528 -36.50521679 114.6136029 -37.24051106 114.86203742 C-40.19269951 115.8595244 -43.14485003 116.8571232 -46.09685165 117.85516298 C-54.49682048 120.69384878 -62.90541489 123.50667691 -71.31445312 126.31835938 C-74.43794156 127.36277076 -77.56140526 128.40725598 -80.68481445 129.4519043 C-81.46243025 129.71197639 -82.24004605 129.97204849 -83.04122597 130.24000156 C-89.44952047 132.38409059 -95.85472588 134.53730592 -102.25949222 136.69190687 C-108.50927953 138.79371152 -114.76170009 140.88755219 -121.01614445 142.97545725 C-124.72081578 144.21242631 -128.42422924 145.45288531 -132.12478065 146.70213127 C-135.56877875 147.86461453 -139.01591257 149.01724879 -142.46576118 150.16224861 C-144.33009485 150.78385539 -146.19093935 151.41589634 -148.05166626 152.04821777 C-149.15906662 152.41366196 -150.26646698 152.77910614 -151.40742493 153.15562439 C-152.36814565 153.47758254 -153.32886637 153.79954069 -154.31869984 154.13125515 C-156.98856804 154.71758794 -158.32970329 154.67403354 -160.8515625 153.6875 C-162.85113525 152.0486908 -162.85113525 152.0486908 -164.97753906 149.90209961 C-166.17833099 148.70096779 -166.17833099 148.70096779 -167.40338135 147.47557068 C-168.25768738 146.60578079 -169.11199341 145.73599091 -169.9921875 144.83984375 C-170.87436951 143.9534169 -171.75655151 143.06699005 -172.66546631 142.15370178 C-175.00534827 139.79986944 -177.33851648 137.43976246 -179.66870117 135.07635498 C-182.04970913 132.66461583 -184.43927103 130.26138521 -186.828125 127.85742188 C-191.5105303 123.14191941 -196.18426978 118.41795844 -200.8515625 113.6875 C-199.57706433 109.86400548 -198.37079786 109.5512002 -194.91015625 107.60546875 C-193.86408203 107.01056641 -192.81800781 106.41566406 -191.74023438 105.80273438 C-190.0319043 104.84850586 -190.0319043 104.84850586 -188.2890625 103.875 C-187.10292956 103.20350813 -185.91738989 102.53096733 -184.73242188 101.85742188 C-182.2932281 100.47137325 -179.85204296 99.08893015 -177.40966797 97.70849609 C-172.19338991 94.75339594 -167.02337197 91.71953457 -161.8515625 88.6875 C-150.30535724 81.93864159 -138.7225275 75.25409834 -127.13378906 68.57861328 C-121.70496312 65.45069854 -116.27834243 62.31896269 -110.8515625 59.1875 C-104.32922975 55.42386081 -97.80642488 51.66105378 -91.28125 47.90234375 C-79.80503147 41.28985593 -68.3442525 34.65243555 -56.90991211 27.96777344 C-51.64798704 24.89401429 -46.37857398 21.83399958 -41.09765625 18.79296875 C-39.40648682 17.81807495 -39.40648682 17.81807495 -37.68115234 16.82348633 C-35.44161127 15.53704777 -33.19850017 14.25680194 -30.95166016 12.9831543 C-25.68764165 9.98489 -20.57607658 6.96930116 -15.73803711 3.31494141 C-10.03408866 -0.41384441 -6.68002201 -1.93077959 0 0 Z " fill="#000000" transform="translate(434.8515625,249.3125)"/>
<path d="M0 0 C0.86102295 1.75028992 0.86102295 1.75028992 1.54980469 4.05737305 C1.81307556 4.91884445 2.07634644 5.78031586 2.34759521 6.66789246 C2.75561371 8.07558647 2.75561371 8.07558647 3.171875 9.51171875 C3.45855042 10.47269974 3.74522583 11.43368073 4.04058838 12.42378235 C4.64501199 14.4622713 5.24312228 16.50264104 5.83544922 18.54467773 C6.74275254 21.66259435 7.67646386 24.77170109 8.61328125 27.88085938 C9.19692861 29.86150366 9.77901091 31.84260993 10.359375 33.82421875 C10.63948425 34.75256027 10.91959351 35.68090179 11.20819092 36.63737488 C12.90096831 42.56151766 13.54635928 46.70691179 10.83935547 52.47167969 C10.11063232 53.68452637 10.11063232 53.68452637 9.3671875 54.921875 C8.81619385 55.85112793 8.2652002 56.78038086 7.69750977 57.73779297 C7.09608154 58.73182129 6.49465332 59.72584961 5.875 60.75 C4.58906731 62.91360121 3.3039379 65.07768002 2.01953125 67.2421875 C1.3538916 68.35819336 0.68825195 69.47419922 0.00244141 70.62402344 C-3.19372185 76.01253179 -6.3150555 81.44355205 -9.4375 86.875 C-10.69517798 89.05736919 -11.95299126 91.23966042 -13.2109375 93.421875 C-14.47403269 95.6145405 -15.73705344 97.80724889 -17 100 C-24.87662589 113.67554314 -32.77120092 127.33960958 -40.73291016 140.96582031 C-46.89919054 151.52620282 -53.0049595 162.12126766 -59.10888672 172.71777344 C-62.85946399 179.22729589 -66.61501989 185.7339478 -70.37036133 192.24072266 C-73.52385162 197.70534663 -76.6746704 203.17147902 -79.8203125 208.640625 C-82.92676978 214.04077592 -86.04440381 219.43435874 -89.16699219 224.82519531 C-91.03019298 228.05229482 -92.8785108 231.28764397 -94.7265625 234.5234375 C-95.90047266 236.55762014 -97.07492718 238.59148876 -98.25 240.625 C-98.78705566 241.57407227 -99.32411133 242.52314453 -99.87744141 243.50097656 C-100.37679199 244.35916992 -100.87614258 245.21736328 -101.390625 246.1015625 C-101.82407227 246.85775879 -102.25751953 247.61395508 -102.70410156 248.39306641 C-103.13174805 248.92335449 -103.55939453 249.45364258 -104 250 C-108.50777212 250 -110.62301454 246.9825011 -113.70703125 244.0078125 C-114.35121506 243.38784393 -114.99539886 242.76787537 -115.65910339 242.12911987 C-117.01932888 240.81041924 -118.37495415 239.4869596 -119.72631836 238.15917969 C-121.79683616 236.14027339 -123.90368906 234.16500757 -126.01367188 232.1875 C-127.33059578 230.90096179 -128.64513119 229.61197321 -129.95703125 228.3203125 C-130.90990776 227.44622238 -130.90990776 227.44622238 -131.8820343 226.55447388 C-133.65427376 224.75499708 -134.84661495 223.24597806 -136 221 C-135.9216513 212.14867953 -131.43952697 202.62872255 -128.68334961 194.26269531 C-128.13567828 192.58638158 -127.5884282 190.90993018 -127.04156494 189.23335266 C-125.2541907 183.76196113 -123.4540823 178.2948002 -121.65234375 172.828125 C-121.3452634 171.89564029 -121.03818305 170.96315557 -120.72179723 170.00241375 C-117.82314315 161.20035624 -114.92042711 152.39965127 -112.00641537 143.60266495 C-108.288483 132.37815278 -104.59208476 121.14706403 -100.92501634 109.90582776 C-98.33887248 101.98401259 -95.72860506 94.07039995 -93.10033423 86.16246295 C-91.53337163 81.44567947 -89.97711627 76.7259815 -88.44660759 71.99723053 C-87.00731926 67.552143 -85.53833554 63.11799761 -84.04626465 58.69035912 C-83.50522115 57.06783612 -82.97487794 55.44169801 -82.45633125 53.81184578 C-77.71056967 38.933817 -77.71056967 38.933817 -70.03979111 34.90673637 C-69.36666004 34.60751337 -68.69352898 34.30829037 -68 34 C-67.02071533 33.44425293 -66.04143066 32.88850586 -65.0324707 32.31591797 C-64.17226318 31.87908691 -63.31205566 31.44225586 -62.42578125 30.9921875 C-61.439729 30.4866333 -60.45367676 29.9810791 -59.43774414 29.46020508 C-58.40641357 28.9370874 -57.37508301 28.41396973 -56.3125 27.875 C-48.01124732 23.61116639 -39.74962606 19.29193168 -31.5625 14.8125 C-30.67111328 14.32612061 -29.77972656 13.83974121 -28.86132812 13.33862305 C-24.4622538 10.92939452 -20.08585651 8.4864086 -15.734375 5.9921875 C-14.90349365 5.51934326 -14.0726123 5.04649902 -13.21655273 4.55932617 C-11.65359757 3.66745605 -10.09549167 2.76701454 -8.54321289 1.85668945 C-3.33424657 -1.11141552 -3.33424657 -1.11141552 0 0 Z " fill="#000000" transform="translate(244,16)"/>
<path d="M0 0 C2.33878194 0.93235425 3.59320347 1.98303468 5.37683582 3.75459003 C6.01484119 4.38124561 6.65284657 5.00790119 7.31018543 5.65354633 C7.99868076 6.34497227 8.68717609 7.0363982 9.39653492 7.74877644 C10.13024311 8.47401508 10.8639513 9.19925373 11.61989307 9.94646931 C14.04576739 12.34892023 16.46025504 14.76244026 18.87382984 17.17724323 C20.55173095 18.84804745 22.22993215 20.51855036 23.90842152 22.18876362 C27.42481542 25.69170139 30.93520081 29.20053518 34.44194508 32.7131319 C38.9458719 37.22296405 43.46779889 41.71425915 47.99482155 46.20089149 C51.46486599 49.64514599 54.92343625 53.10074377 58.37877941 56.55974102 C60.04188354 58.2211466 61.70899735 59.87854809 63.38009548 61.5319128 C65.71012385 63.83991917 68.02386165 66.16310774 70.33403492 68.49096394 C71.03265141 69.17631718 71.73126789 69.86167042 72.45105457 70.56779194 C73.38691395 71.52046452 73.38691395 71.52046452 74.34167957 72.492383 C74.89048188 73.0404728 75.43928419 73.5885626 76.00471687 74.15326118 C77.04179859 75.81396198 77.04179859 75.81396198 76.79844379 77.90902233 C75.85153662 80.29296796 74.61492108 81.63553822 72.81401539 83.46166706 C72.13207615 84.15951817 71.45013691 84.85736927 70.74753284 85.57636738 C70.00288273 86.32121891 69.25823261 87.06607044 68.49101734 87.83349323 C67.33724346 88.9986874 67.33724346 88.9986874 66.16016102 90.18742085 C64.52555645 91.83283934 62.88694518 93.4742856 61.24467945 95.11205769 C58.76301892 97.59275475 56.3033511 100.09385242 53.84453297 102.59716511 C39.76032795 116.79125235 26.77494533 126.69524474 5.91679859 127.25146198 C-9.83651093 126.68441372 -23.29037075 121.21043481 -34.73945141 110.26318073 C-45.66665572 98.20093231 -50.50847263 83.43812111 -49.83320141 67.31396198 C-47.75225165 43.89729749 -31.86643664 29.5376987 -16.23969555 13.74535847 C-15.0758755 12.56467864 -13.91748445 11.37862685 -12.76410961 10.18774128 C-11.07110033 8.44038557 -9.3625883 6.70968403 -7.64960766 4.98193073 C-7.13604214 4.44569584 -6.62247662 3.90946095 -6.0933485 3.35697651 C-2.47955532 -0.235569 -2.47955532 -0.235569 0 0 Z " fill="#000000" transform="translate(64.95820140838623,370.18603801727295)"/>
<path d="M0 0 C2.35935133 1.40171499 4.05024489 2.94409042 5.98382568 4.89091492 C6.72429138 5.63153168 7.46475708 6.37214844 8.22766113 7.13520813 C9.01634583 7.93421539 9.80503052 8.73322266 10.61761475 9.55644226 C11.84100555 10.78407791 11.84100555 10.78407791 13.08911133 12.03651428 C15.69188537 14.65047949 18.28761737 17.27131481 20.88323975 19.89237976 C22.64710314 21.6662743 24.41142065 23.43971742 26.1762085 25.21269226 C30.50050111 29.55903118 34.81903305 33.91103057 39.13323975 38.26737976 C37.83856576 40.85672773 36.98111524 40.8638603 34.28147888 41.77415466 C33.45288361 42.0574614 32.62428833 42.34076813 31.77058411 42.63265991 C30.39681862 43.08944878 30.39681862 43.08944878 28.99530029 43.5554657 C28.03597595 43.88083817 27.07665161 44.20621063 26.08825684 44.54144287 C22.9014745 45.61959553 19.71100195 46.68628516 16.5199585 47.75175476 C14.31128967 48.49332912 12.10269788 49.23513294 9.8941803 49.97715759 C5.25795431 51.53256245 0.61969219 53.08171904 -4.01983643 54.62724304 C-9.97386623 56.61175023 -15.92075098 58.61679868 -21.86605549 60.62726974 C-26.42732565 62.1661955 -30.99305824 63.69151662 -35.56017113 65.21300507 C-37.75509039 65.94661637 -39.94838305 66.68511263 -42.14000893 67.42850494 C-45.20234554 68.46555473 -48.27038931 69.48352666 -51.34063721 70.49687195 C-52.70529366 70.9658062 -52.70529366 70.9658062 -54.09751892 71.44421387 C-55.35310104 71.85225502 -55.35310104 71.85225502 -56.63404846 72.26853943 C-57.72165954 72.63243837 -57.72165954 72.63243837 -58.83124256 73.00368881 C-61.48088918 73.34693704 -62.63772209 72.68347935 -64.86676025 71.26737976 C-66.57539362 69.7216235 -68.23180765 68.11739277 -69.85113525 66.47831726 C-70.31159241 66.01503021 -70.77204956 65.55174316 -71.24645996 65.07441711 C-72.70801103 63.60172078 -74.16243193 62.12220573 -75.61676025 60.64237976 C-76.60978636 59.63931654 -77.60327114 58.63670719 -78.597229 57.63456726 C-81.02573966 55.18407141 -83.44790701 52.72741306 -85.86676025 50.26737976 C-84.61003887 46.49721561 -83.57113695 46.26026573 -80.144104 44.40409851 C-78.64278931 43.57954163 -78.64278931 43.57954163 -77.11114502 42.73832703 C-75.47423706 41.85552063 -75.47423706 41.85552063 -73.80426025 40.95487976 C-71.49854979 39.68851136 -69.19388669 38.42023437 -66.89019775 37.15019226 C-66.30140335 36.82666275 -65.71260895 36.50313324 -65.10597229 36.1697998 C-59.32330311 32.98614547 -53.62068623 29.67312169 -47.92926025 26.32987976 C-41.58546176 22.60886081 -35.2376728 18.89600852 -28.862854 15.22831726 C-28.27722183 14.89128281 -27.69158966 14.55424835 -27.08821106 14.20700073 C-24.25782725 12.57868659 -21.42632422 10.95235259 -18.59356689 9.32817078 C-17.5699707 8.73963318 -16.54637451 8.15109558 -15.49176025 7.54472351 C-14.04156494 6.71497009 -14.04156494 6.71497009 -12.56207275 5.86845398 C-9.46570309 4.02914308 -6.50439578 2.03067154 -3.58551025 -0.07807922 C-1.86676025 -0.73262024 -1.86676025 -0.73262024 0 0 Z " fill="#000000" transform="translate(220.86676025390625,369.7326202392578)"/>
<path d="M0 0 C4.05485012 1.62727937 6.84312954 4.50294951 9.89453125 7.5234375 C10.44614426 8.06602203 10.99775726 8.60860657 11.56608582 9.16763306 C12.72604491 10.3131221 13.8832449 11.46141101 15.0378418 12.61230469 C16.81178562 14.37429044 18.60353036 16.11676416 20.39648438 17.859375 C21.52197714 18.97541018 22.64636557 20.0925604 23.76953125 21.2109375 C24.3089888 21.73086273 24.84844635 22.25078796 25.4042511 22.78646851 C29.00177004 26.42882132 29.00177004 26.42882132 28.99365234 29.04833984 C28.50179443 30.01441162 28.50179443 30.01441162 28 31 C27.61175049 31.78149414 27.22350098 32.56298828 26.82348633 33.36816406 C26.33130615 34.24182617 25.83912598 35.11548828 25.33203125 36.015625 C24.77588135 37.0068335 24.21973145 37.99804199 23.64672852 39.01928711 C22.7387854 40.61848999 22.7387854 40.61848999 21.8125 42.25 C21.184646 43.36318604 20.55679199 44.47637207 19.90991211 45.62329102 C14.56017158 55.07928279 9.09778092 64.46838302 3.6015625 73.83984375 C1.03625551 78.21733357 -1.50881472 82.60607939 -4.0390625 87.00390625 C-4.37609695 87.58953842 -4.71313141 88.17517059 -5.06037903 88.77854919 C-6.68869317 91.60893301 -8.31502717 94.44043604 -9.93920898 97.27319336 C-13.18697447 102.92177111 -16.50391096 108.50142517 -20 114 C-21.69390969 112.58234288 -23.37458366 111.1560401 -25.03515625 109.69921875 C-26.28137341 108.62147628 -27.55796462 107.57715834 -28.87109375 106.58203125 C-30.63627566 105.12667342 -31.81333942 103.95793924 -33 102 C-32.89776611 100.02072144 -32.89776611 100.02072144 -32.32519531 97.83544922 C-32.01624329 96.63961212 -32.01624329 96.63961212 -31.7010498 95.4196167 C-30.63168462 91.72878925 -29.47711963 88.0813539 -28.234375 84.4453125 C-27.96424088 83.64184387 -27.69410675 82.83837524 -27.41578674 82.01055908 C-26.83393821 80.28102767 -26.25010556 78.55216269 -25.66445923 76.82391357 C-24.08836913 72.17227812 -22.52697614 67.51571271 -20.96484375 62.859375 C-20.64069992 61.89417938 -20.31655609 60.92898376 -19.98258972 59.93453979 C-15.73894554 47.27490208 -11.63637028 34.56917487 -7.53222656 21.86376953 C-7.25023911 20.9931488 -6.96825165 20.12252808 -6.67771912 19.2255249 C-6.15580554 17.61411002 -5.63537468 16.00221371 -5.11683655 14.38970947 C-3.54416302 9.5373497 -1.82153711 4.7647452 0 0 Z " fill="#000000" transform="translate(102,252)"/>
<path d="M0 0 C4.19625909 1.63778045 6.98676785 4.73323182 10.078125 7.8828125 C10.64956238 8.45707977 11.22099976 9.03134705 11.80975342 9.62301636 C13.62792945 11.4523581 15.43901492 13.28854193 17.25 15.125 C18.48391329 16.36894774 19.71828322 17.6124427 20.953125 18.85546875 C23.97406743 21.89842367 26.98867092 24.94753254 30 28 C26.09516632 32.67299695 22.03853642 37.10328418 17.71923828 41.39428711 C17.12339432 41.9902771 16.52755035 42.58626709 15.91365051 43.20031738 C13.96823528 45.14504295 12.01931586 47.0862148 10.0703125 49.02734375 C8.71103383 50.38475488 7.3519776 51.74238879 5.99313354 53.10023499 C2.43454553 56.65502433 -1.12703645 60.20679893 -4.68927002 63.75793457 C-8.3311332 67.38952638 -11.97012963 71.02398832 -15.609375 74.65820312 C-22.73679511 81.77493271 -29.86738441 88.88847777 -37 96 C-41.99417121 93.64926374 -45.201651 89.92496063 -49 86 C-45.15618699 78.09465294 -41.04471418 70.43486355 -36.5625 62.875 C-35.32359487 60.76859599 -34.08533602 58.66181174 -32.84765625 56.5546875 C-32.21359863 55.47670898 -31.57954102 54.39873047 -30.92626953 53.28808594 C-27.75531368 47.87535673 -24.62850948 42.43733641 -21.5 37 C-14.38087363 24.63874381 -7.20114538 12.31363959 0 0 Z " fill="#000000" transform="translate(141,291)"/>
<path d="M0 0 C4.03070124 1.85723377 6.78284024 4.52717467 9.859375 7.6640625 C10.683237 8.49216934 10.683237 8.49216934 11.52374268 9.33700562 C13.27059293 11.09501815 15.01034601 12.8598689 16.75 14.625 C17.93573591 15.8207708 19.1219288 17.01608865 20.30859375 18.2109375 C23.21105085 21.13540253 26.1071641 24.06601874 29 27 C27.72550183 30.82349452 26.51923536 31.1362998 23.05859375 33.08203125 C22.01251953 33.67693359 20.96644531 34.27183594 19.88867188 34.88476562 C18.1803418 35.83899414 18.1803418 35.83899414 16.4375 36.8125 C15.25136706 37.48399187 14.06582739 38.15653267 12.88085938 38.83007812 C10.4416656 40.21612675 8.00048046 41.59856985 5.55810547 42.97900391 C0.34182813 45.93410365 -4.8282173 48.96792074 -10 52 C-18.6716355 57.06933712 -27.36097328 62.10721421 -36.0625 67.125 C-37.15111328 67.75277344 -38.23972656 68.38054687 -39.36132812 69.02734375 C-41.36730081 70.18332801 -43.37575199 71.33502714 -45.38720703 72.48144531 C-46.99629912 73.41664927 -48.59018942 74.37937884 -50.15576172 75.38574219 C-51.99609375 76.5546875 -51.99609375 76.5546875 -55 78 C-58.57538575 77.18975071 -60.7475492 74.46086583 -63.25 71.875 C-63.95640625 71.15054688 -64.6628125 70.42609375 -65.390625 69.6796875 C-65.92171875 69.12539063 -66.4528125 68.57109375 -67 68 C-63.09516632 63.32700305 -59.03853642 58.89671582 -54.71923828 54.60571289 C-54.12339432 54.0097229 -53.52755035 53.41373291 -52.91365051 52.79968262 C-50.96823528 50.85495705 -49.01931586 48.9137852 -47.0703125 46.97265625 C-45.71103383 45.61524512 -44.3519776 44.25761121 -42.99313354 42.89976501 C-39.43454553 39.34497567 -35.87296355 35.79320107 -32.31072998 32.24206543 C-28.6688668 28.61047362 -25.02987037 24.97601168 -21.390625 21.34179688 C-14.26320489 14.22506729 -7.13261559 7.11152223 0 0 Z " fill="#000000" transform="translate(180,330)"/>
</svg>
